<mxfile host="Electron" modified="2024-02-13T01:26:02.712Z" agent="Mozilla/5.0 (Macintosh; Intel Mac OS X 10_15_7) AppleWebKit/537.36 (KHTML, like Gecko) draw.io/23.0.2 Chrome/120.0.6099.109 Electron/28.1.0 Safari/537.36" etag="V3EqxRfS7fFr6X1SDDVN" version="23.0.2" type="device">
  <diagram name="PÃ¡gina-1" id="zKiDKRxTvOzYKOql4q94">
    <mxGraphModel dx="6691" dy="2847" grid="1" gridSize="10" guides="1" tooltips="1" connect="1" arrows="1" fold="1" page="1" pageScale="1" pageWidth="1169" pageHeight="827" math="0" shadow="0">
      <root>
        <mxCell id="0" />
        <mxCell id="1" parent="0" />
        <mxCell id="1yLFMfKAnZicDxa3bDTO-8" style="edgeStyle=orthogonalEdgeStyle;rounded=0;orthogonalLoop=1;jettySize=auto;html=1;" edge="1" parent="1" source="8_4pCXizMDxoQlKzlbWR-1" target="1yLFMfKAnZicDxa3bDTO-1">
          <mxGeometry relative="1" as="geometry" />
        </mxCell>
        <mxCell id="8_4pCXizMDxoQlKzlbWR-1" value="&lt;p style=&quot;margin:0px;margin-top:4px;text-align:center;text-decoration:underline;&quot;&gt;&lt;b&gt;usuarios:Usuario&lt;/b&gt;&lt;/p&gt;&lt;hr&gt;&lt;p style=&quot;margin:0px;margin-left:8px;&quot;&gt;_id: string&lt;br&gt;rol: string&lt;br&gt;estado: boolean&lt;/p&gt;&lt;p style=&quot;margin:0px;margin-left:8px;&quot;&gt;nombre: string&lt;/p&gt;&lt;p style=&quot;margin:0px;margin-left:8px;&quot;&gt;correo: string&lt;/p&gt;&lt;p style=&quot;margin:0px;margin-left:8px;&quot;&gt;password: string&lt;/p&gt;&lt;p style=&quot;margin:0px;margin-left:8px;&quot;&gt;uid: string&lt;/p&gt;" style="verticalAlign=top;align=left;overflow=fill;fontSize=12;fontFamily=Helvetica;html=1;whiteSpace=wrap;" parent="1" vertex="1">
          <mxGeometry x="-1470" y="350" width="160" height="180" as="geometry" />
        </mxCell>
        <mxCell id="1yLFMfKAnZicDxa3bDTO-7" style="edgeStyle=orthogonalEdgeStyle;rounded=0;orthogonalLoop=1;jettySize=auto;html=1;entryX=0.55;entryY=0.008;entryDx=0;entryDy=0;entryPerimeter=0;" edge="1" parent="1" source="8_4pCXizMDxoQlKzlbWR-2" target="8_4pCXizMDxoQlKzlbWR-1">
          <mxGeometry relative="1" as="geometry">
            <mxPoint x="-1380" y="340" as="targetPoint" />
          </mxGeometry>
        </mxCell>
        <mxCell id="8_4pCXizMDxoQlKzlbWR-2" value="&lt;p style=&quot;margin:0px;margin-top:4px;text-align:center;text-decoration:underline;&quot;&gt;&lt;b&gt;roles:Role&lt;/b&gt;&lt;/p&gt;&lt;hr&gt;&lt;p style=&quot;margin:0px;margin-left:8px;&quot;&gt;_id: string&lt;br&gt;rol: string&lt;br&gt;estado: boolean&lt;/p&gt;" style="verticalAlign=top;align=left;overflow=fill;fontSize=12;fontFamily=Helvetica;html=1;whiteSpace=wrap;" parent="1" vertex="1">
          <mxGeometry x="-1510" y="225" width="160" height="90" as="geometry" />
        </mxCell>
        <mxCell id="rXWK24yErsD0leZuDPwI-5" value="&lt;h1&gt;Proyecto Bigotes&lt;/h1&gt;&lt;p&gt;Un aplicativo de practica&lt;/p&gt;&lt;p&gt;&amp;nbsp;- Frontend: Conejo (React Native)&lt;/p&gt;&lt;p&gt;- Backend: bigotes (Nodejs)&lt;/p&gt;" style="text;html=1;strokeColor=none;fillColor=none;spacing=5;spacingTop=-20;whiteSpace=wrap;overflow=hidden;rounded=0;" parent="1" vertex="1">
          <mxGeometry x="640" y="10" width="260" height="120" as="geometry" />
        </mxCell>
        <mxCell id="1yLFMfKAnZicDxa3bDTO-5" style="edgeStyle=orthogonalEdgeStyle;rounded=0;orthogonalLoop=1;jettySize=auto;html=1;entryX=0;entryY=0.5;entryDx=0;entryDy=0;" edge="1" parent="1" source="rXWK24yErsD0leZuDPwI-9" target="rXWK24yErsD0leZuDPwI-10">
          <mxGeometry relative="1" as="geometry" />
        </mxCell>
        <mxCell id="rXWK24yErsD0leZuDPwI-9" value="&lt;p style=&quot;margin:0px;margin-top:4px;text-align:center;text-decoration:underline;&quot;&gt;&lt;b&gt;categoria:Categoria&lt;/b&gt;&lt;/p&gt;&lt;hr&gt;&lt;p style=&quot;margin:0px;margin-left:8px;&quot;&gt;titulo = value1&lt;br&gt;field2 = value2&lt;br&gt;field3 = value3&lt;/p&gt;" style="verticalAlign=top;align=left;overflow=fill;fontSize=12;fontFamily=Helvetica;html=1;whiteSpace=wrap;" parent="1" vertex="1">
          <mxGeometry x="-1810" y="260" width="160" height="90" as="geometry" />
        </mxCell>
        <mxCell id="rXWK24yErsD0leZuDPwI-10" value="&lt;p style=&quot;margin:0px;margin-top:4px;text-align:center;text-decoration:underline;&quot;&gt;&lt;b&gt;producto:Producto&lt;/b&gt;&lt;/p&gt;&lt;hr&gt;&lt;p style=&quot;margin:0px;margin-left:8px;&quot;&gt;id = value1&lt;br&gt;estado = value2&lt;br&gt;precio = value3&lt;/p&gt;" style="verticalAlign=top;align=left;overflow=fill;fontSize=12;fontFamily=Helvetica;html=1;whiteSpace=wrap;" parent="1" vertex="1">
          <mxGeometry x="-1720" y="400" width="160" height="90" as="geometry" />
        </mxCell>
        <mxCell id="1yLFMfKAnZicDxa3bDTO-3" style="edgeStyle=orthogonalEdgeStyle;rounded=0;orthogonalLoop=1;jettySize=auto;html=1;" edge="1" parent="1" source="1yLFMfKAnZicDxa3bDTO-1" target="1yLFMfKAnZicDxa3bDTO-2">
          <mxGeometry relative="1" as="geometry" />
        </mxCell>
        <mxCell id="1yLFMfKAnZicDxa3bDTO-1" value="&lt;p style=&quot;margin:0px;margin-top:4px;text-align:center;text-decoration:underline;&quot;&gt;&lt;b&gt;lista:Lista&lt;/b&gt;&lt;/p&gt;&lt;hr&gt;&lt;p style=&quot;margin:0px;margin-left:8px;&quot;&gt;descripcion: string&lt;/p&gt;&lt;p style=&quot;margin:0px;margin-left:8px;&quot;&gt;field2&amp;nbsp; value2&lt;br&gt;field3 = value3&lt;/p&gt;" style="verticalAlign=top;align=left;overflow=fill;fontSize=12;fontFamily=Helvetica;html=1;whiteSpace=wrap;" vertex="1" parent="1">
          <mxGeometry x="-1280" y="500" width="160" height="90" as="geometry" />
        </mxCell>
        <mxCell id="1yLFMfKAnZicDxa3bDTO-2" value="&lt;p style=&quot;margin:0px;margin-top:4px;text-align:center;text-decoration:underline;&quot;&gt;&lt;b&gt;item:Item&lt;/b&gt;&lt;/p&gt;&lt;hr&gt;&lt;p style=&quot;margin:0px;margin-left:8px;&quot;&gt;field1 = value1&lt;br&gt;field2 = value2&lt;br&gt;field3 = value3&lt;/p&gt;" style="verticalAlign=top;align=left;overflow=fill;fontSize=12;fontFamily=Helvetica;html=1;whiteSpace=wrap;" vertex="1" parent="1">
          <mxGeometry x="-1280" y="635" width="160" height="90" as="geometry" />
        </mxCell>
        <mxCell id="1yLFMfKAnZicDxa3bDTO-6" style="edgeStyle=orthogonalEdgeStyle;rounded=0;orthogonalLoop=1;jettySize=auto;html=1;entryX=1;entryY=0.5;entryDx=0;entryDy=0;" edge="1" parent="1" source="8_4pCXizMDxoQlKzlbWR-1" target="rXWK24yErsD0leZuDPwI-10">
          <mxGeometry relative="1" as="geometry" />
        </mxCell>
        <mxCell id="1yLFMfKAnZicDxa3bDTO-13" style="edgeStyle=orthogonalEdgeStyle;rounded=0;orthogonalLoop=1;jettySize=auto;html=1;" edge="1" parent="1" source="1yLFMfKAnZicDxa3bDTO-9" target="1yLFMfKAnZicDxa3bDTO-11">
          <mxGeometry relative="1" as="geometry" />
        </mxCell>
        <mxCell id="1yLFMfKAnZicDxa3bDTO-9" value="&lt;p style=&quot;margin:0px;margin-top:6px;text-align:center;&quot;&gt;&lt;b&gt;App&lt;/b&gt;&lt;/p&gt;&lt;hr&gt;&lt;p style=&quot;margin:0px;margin-left:8px;&quot;&gt;+ Provider&amp;lt;Store&amp;gt;&lt;br&gt;+ PersisGate&amp;lt;persisitor&amp;gt; [auth]&lt;/p&gt;&lt;p style=&quot;margin:0px;margin-left:8px;&quot;&gt;+ Navigator&lt;/p&gt;" style="align=left;overflow=fill;html=1;dropTarget=0;whiteSpace=wrap;" vertex="1" parent="1">
          <mxGeometry x="1240" y="110" width="180" height="90" as="geometry" />
        </mxCell>
        <mxCell id="1yLFMfKAnZicDxa3bDTO-10" value="" style="shape=component;jettyWidth=8;jettyHeight=4;" vertex="1" parent="1yLFMfKAnZicDxa3bDTO-9">
          <mxGeometry x="1" width="20" height="20" relative="1" as="geometry">
            <mxPoint x="-24" y="4" as="offset" />
          </mxGeometry>
        </mxCell>
        <mxCell id="1yLFMfKAnZicDxa3bDTO-18" style="edgeStyle=orthogonalEdgeStyle;rounded=0;orthogonalLoop=1;jettySize=auto;html=1;" edge="1" parent="1" source="1yLFMfKAnZicDxa3bDTO-11" target="1yLFMfKAnZicDxa3bDTO-14">
          <mxGeometry relative="1" as="geometry" />
        </mxCell>
        <mxCell id="1yLFMfKAnZicDxa3bDTO-26" style="edgeStyle=orthogonalEdgeStyle;rounded=0;orthogonalLoop=1;jettySize=auto;html=1;entryX=0;entryY=0.5;entryDx=0;entryDy=0;" edge="1" parent="1" source="1yLFMfKAnZicDxa3bDTO-11" target="1yLFMfKAnZicDxa3bDTO-16">
          <mxGeometry relative="1" as="geometry" />
        </mxCell>
        <mxCell id="1yLFMfKAnZicDxa3bDTO-11" value="&lt;p style=&quot;margin:0px;margin-top:6px;text-align:center;&quot;&gt;&lt;b&gt;Navigator&lt;/b&gt;&lt;/p&gt;&lt;hr&gt;&lt;p style=&quot;margin:0px;margin-left:8px;&quot;&gt;+ DrawerNavigatorLateral&lt;br&gt;+ StackNavigatorPublic&lt;/p&gt;" style="align=left;overflow=fill;html=1;dropTarget=0;whiteSpace=wrap;" vertex="1" parent="1">
          <mxGeometry x="1190" y="230" width="240" height="160" as="geometry" />
        </mxCell>
        <mxCell id="1yLFMfKAnZicDxa3bDTO-12" value="" style="shape=component;jettyWidth=8;jettyHeight=4;" vertex="1" parent="1yLFMfKAnZicDxa3bDTO-11">
          <mxGeometry x="1" width="20" height="20" relative="1" as="geometry">
            <mxPoint x="-24" y="4" as="offset" />
          </mxGeometry>
        </mxCell>
        <mxCell id="1yLFMfKAnZicDxa3bDTO-21" style="edgeStyle=orthogonalEdgeStyle;rounded=0;orthogonalLoop=1;jettySize=auto;html=1;entryX=0.5;entryY=0;entryDx=0;entryDy=0;" edge="1" parent="1" source="1yLFMfKAnZicDxa3bDTO-14" target="1yLFMfKAnZicDxa3bDTO-19">
          <mxGeometry relative="1" as="geometry" />
        </mxCell>
        <mxCell id="1yLFMfKAnZicDxa3bDTO-25" style="edgeStyle=orthogonalEdgeStyle;rounded=0;orthogonalLoop=1;jettySize=auto;html=1;entryX=0.5;entryY=0;entryDx=0;entryDy=0;" edge="1" parent="1" source="1yLFMfKAnZicDxa3bDTO-14" target="1yLFMfKAnZicDxa3bDTO-23">
          <mxGeometry relative="1" as="geometry" />
        </mxCell>
        <mxCell id="1yLFMfKAnZicDxa3bDTO-14" value="&lt;p style=&quot;margin:0px;margin-top:6px;text-align:center;&quot;&gt;&lt;b&gt;StackNavigatorPublic&lt;/b&gt;&lt;/p&gt;&lt;hr&gt;&lt;p style=&quot;margin:0px;margin-left:8px;&quot;&gt;+ LoginScreen&lt;br&gt;+ RegisterScreen&lt;/p&gt;" style="align=left;overflow=fill;html=1;dropTarget=0;whiteSpace=wrap;" vertex="1" parent="1">
          <mxGeometry x="960" y="250" width="180" height="90" as="geometry" />
        </mxCell>
        <mxCell id="1yLFMfKAnZicDxa3bDTO-15" value="" style="shape=component;jettyWidth=8;jettyHeight=4;" vertex="1" parent="1yLFMfKAnZicDxa3bDTO-14">
          <mxGeometry x="1" width="20" height="20" relative="1" as="geometry">
            <mxPoint x="-24" y="4" as="offset" />
          </mxGeometry>
        </mxCell>
        <mxCell id="1yLFMfKAnZicDxa3bDTO-29" style="edgeStyle=orthogonalEdgeStyle;rounded=0;orthogonalLoop=1;jettySize=auto;html=1;entryX=0.5;entryY=0;entryDx=0;entryDy=0;" edge="1" parent="1" source="1yLFMfKAnZicDxa3bDTO-16" target="1yLFMfKAnZicDxa3bDTO-27">
          <mxGeometry relative="1" as="geometry" />
        </mxCell>
        <mxCell id="1yLFMfKAnZicDxa3bDTO-32" style="edgeStyle=orthogonalEdgeStyle;rounded=0;orthogonalLoop=1;jettySize=auto;html=1;" edge="1" parent="1" source="1yLFMfKAnZicDxa3bDTO-16" target="1yLFMfKAnZicDxa3bDTO-30">
          <mxGeometry relative="1" as="geometry" />
        </mxCell>
        <mxCell id="1yLFMfKAnZicDxa3bDTO-16" value="&lt;p style=&quot;margin:0px;margin-top:6px;text-align:center;&quot;&gt;&lt;b&gt;DrawerNavigatorLateral&lt;/b&gt;&lt;/p&gt;&lt;hr&gt;&lt;p style=&quot;margin:0px;margin-left:8px;&quot;&gt;+ StackNavigatorPrivate&lt;br&gt;+ AccountScreen&lt;/p&gt;" style="align=left;overflow=fill;html=1;dropTarget=0;whiteSpace=wrap;" vertex="1" parent="1">
          <mxGeometry x="1520" y="260" width="180" height="90" as="geometry" />
        </mxCell>
        <mxCell id="1yLFMfKAnZicDxa3bDTO-17" value="" style="shape=component;jettyWidth=8;jettyHeight=4;" vertex="1" parent="1yLFMfKAnZicDxa3bDTO-16">
          <mxGeometry x="1" width="20" height="20" relative="1" as="geometry">
            <mxPoint x="-24" y="4" as="offset" />
          </mxGeometry>
        </mxCell>
        <mxCell id="1yLFMfKAnZicDxa3bDTO-19" value="&lt;p style=&quot;margin:0px;margin-top:6px;text-align:center;&quot;&gt;&lt;b&gt;LoginScreen&lt;/b&gt;&lt;/p&gt;&lt;hr&gt;&lt;p style=&quot;margin:0px;margin-left:8px;&quot;&gt;+ authReducer&lt;br&gt;+ useForm&lt;/p&gt;" style="align=left;overflow=fill;html=1;dropTarget=0;whiteSpace=wrap;" vertex="1" parent="1">
          <mxGeometry x="850" y="410" width="180" height="90" as="geometry" />
        </mxCell>
        <mxCell id="1yLFMfKAnZicDxa3bDTO-20" value="" style="shape=component;jettyWidth=8;jettyHeight=4;" vertex="1" parent="1yLFMfKAnZicDxa3bDTO-19">
          <mxGeometry x="1" width="20" height="20" relative="1" as="geometry">
            <mxPoint x="-24" y="4" as="offset" />
          </mxGeometry>
        </mxCell>
        <mxCell id="1yLFMfKAnZicDxa3bDTO-23" value="&lt;p style=&quot;margin:0px;margin-top:6px;text-align:center;&quot;&gt;&lt;b&gt;RegisterScreen&lt;/b&gt;&lt;/p&gt;&lt;hr&gt;&lt;p style=&quot;margin:0px;margin-left:8px;&quot;&gt;+ Attribute1: Type&lt;br&gt;+ Attribute2: Type&lt;/p&gt;" style="align=left;overflow=fill;html=1;dropTarget=0;whiteSpace=wrap;" vertex="1" parent="1">
          <mxGeometry x="1070" y="410" width="180" height="90" as="geometry" />
        </mxCell>
        <mxCell id="1yLFMfKAnZicDxa3bDTO-24" value="" style="shape=component;jettyWidth=8;jettyHeight=4;" vertex="1" parent="1yLFMfKAnZicDxa3bDTO-23">
          <mxGeometry x="1" width="20" height="20" relative="1" as="geometry">
            <mxPoint x="-24" y="4" as="offset" />
          </mxGeometry>
        </mxCell>
        <mxCell id="1yLFMfKAnZicDxa3bDTO-37" style="edgeStyle=orthogonalEdgeStyle;rounded=0;orthogonalLoop=1;jettySize=auto;html=1;entryX=0.5;entryY=0;entryDx=0;entryDy=0;" edge="1" parent="1" source="1yLFMfKAnZicDxa3bDTO-27" target="1yLFMfKAnZicDxa3bDTO-35">
          <mxGeometry relative="1" as="geometry" />
        </mxCell>
        <mxCell id="1yLFMfKAnZicDxa3bDTO-38" style="edgeStyle=orthogonalEdgeStyle;rounded=0;orthogonalLoop=1;jettySize=auto;html=1;" edge="1" parent="1" source="1yLFMfKAnZicDxa3bDTO-27" target="1yLFMfKAnZicDxa3bDTO-33">
          <mxGeometry relative="1" as="geometry" />
        </mxCell>
        <mxCell id="1yLFMfKAnZicDxa3bDTO-54" style="edgeStyle=orthogonalEdgeStyle;rounded=0;orthogonalLoop=1;jettySize=auto;html=1;entryX=0.5;entryY=0;entryDx=0;entryDy=0;" edge="1" parent="1" source="1yLFMfKAnZicDxa3bDTO-27" target="1yLFMfKAnZicDxa3bDTO-52">
          <mxGeometry relative="1" as="geometry">
            <Array as="points">
              <mxPoint x="1510" y="530" />
              <mxPoint x="1290" y="530" />
            </Array>
          </mxGeometry>
        </mxCell>
        <mxCell id="1yLFMfKAnZicDxa3bDTO-27" value="&lt;p style=&quot;margin:0px;margin-top:6px;text-align:center;&quot;&gt;&lt;b&gt;StackNavigatorPrivate&lt;/b&gt;&lt;/p&gt;&lt;hr&gt;&lt;p style=&quot;margin:0px;margin-left:8px;&quot;&gt;+ Home&lt;/p&gt;&lt;p style=&quot;margin:0px;margin-left:8px;&quot;&gt;+ ProtectedScreen&lt;br&gt;+ ThemeScreen&lt;/p&gt;" style="align=left;overflow=fill;html=1;dropTarget=0;whiteSpace=wrap;" vertex="1" parent="1">
          <mxGeometry x="1420" y="420" width="180" height="90" as="geometry" />
        </mxCell>
        <mxCell id="1yLFMfKAnZicDxa3bDTO-28" value="" style="shape=component;jettyWidth=8;jettyHeight=4;" vertex="1" parent="1yLFMfKAnZicDxa3bDTO-27">
          <mxGeometry x="1" width="20" height="20" relative="1" as="geometry">
            <mxPoint x="-24" y="4" as="offset" />
          </mxGeometry>
        </mxCell>
        <mxCell id="1yLFMfKAnZicDxa3bDTO-30" value="&lt;p style=&quot;margin:0px;margin-top:6px;text-align:center;&quot;&gt;&lt;b&gt;AccountScreen&lt;/b&gt;&lt;/p&gt;&lt;hr&gt;&lt;p style=&quot;margin:0px;margin-left:8px;&quot;&gt;+ Attribute1: Type&lt;br&gt;+ Attribute2: Type&lt;/p&gt;" style="align=left;overflow=fill;html=1;dropTarget=0;whiteSpace=wrap;" vertex="1" parent="1">
          <mxGeometry x="1630" y="420" width="180" height="90" as="geometry" />
        </mxCell>
        <mxCell id="1yLFMfKAnZicDxa3bDTO-31" value="" style="shape=component;jettyWidth=8;jettyHeight=4;" vertex="1" parent="1yLFMfKAnZicDxa3bDTO-30">
          <mxGeometry x="1" width="20" height="20" relative="1" as="geometry">
            <mxPoint x="-24" y="4" as="offset" />
          </mxGeometry>
        </mxCell>
        <mxCell id="1yLFMfKAnZicDxa3bDTO-33" value="&lt;p style=&quot;margin:0px;margin-top:6px;text-align:center;&quot;&gt;&lt;b&gt;ThemeScreen&lt;/b&gt;&lt;/p&gt;&lt;hr&gt;&lt;p style=&quot;margin:0px;margin-left:8px;&quot;&gt;+ Attribute1: Type&lt;br&gt;+ Attribute2: Type&lt;/p&gt;" style="align=left;overflow=fill;html=1;dropTarget=0;whiteSpace=wrap;" vertex="1" parent="1">
          <mxGeometry x="1580" y="550" width="180" height="90" as="geometry" />
        </mxCell>
        <mxCell id="1yLFMfKAnZicDxa3bDTO-34" value="" style="shape=component;jettyWidth=8;jettyHeight=4;" vertex="1" parent="1yLFMfKAnZicDxa3bDTO-33">
          <mxGeometry x="1" width="20" height="20" relative="1" as="geometry">
            <mxPoint x="-24" y="4" as="offset" />
          </mxGeometry>
        </mxCell>
        <mxCell id="1yLFMfKAnZicDxa3bDTO-35" value="&lt;p style=&quot;margin:0px;margin-top:6px;text-align:center;&quot;&gt;&lt;b&gt;ProtectedScreen&lt;/b&gt;&lt;/p&gt;&lt;hr&gt;&lt;p style=&quot;margin:0px;margin-left:8px;&quot;&gt;+ Attribute1: Type&lt;br&gt;+ Attribute2: Type&lt;/p&gt;" style="align=left;overflow=fill;html=1;dropTarget=0;whiteSpace=wrap;" vertex="1" parent="1">
          <mxGeometry x="1390" y="550" width="180" height="90" as="geometry" />
        </mxCell>
        <mxCell id="1yLFMfKAnZicDxa3bDTO-36" value="" style="shape=component;jettyWidth=8;jettyHeight=4;" vertex="1" parent="1yLFMfKAnZicDxa3bDTO-35">
          <mxGeometry x="1" width="20" height="20" relative="1" as="geometry">
            <mxPoint x="-24" y="4" as="offset" />
          </mxGeometry>
        </mxCell>
        <mxCell id="1yLFMfKAnZicDxa3bDTO-48" style="edgeStyle=orthogonalEdgeStyle;rounded=0;orthogonalLoop=1;jettySize=auto;html=1;entryX=0.5;entryY=0;entryDx=0;entryDy=0;" edge="1" parent="1" source="1yLFMfKAnZicDxa3bDTO-39" target="1yLFMfKAnZicDxa3bDTO-45">
          <mxGeometry relative="1" as="geometry" />
        </mxCell>
        <mxCell id="1yLFMfKAnZicDxa3bDTO-39" value="&lt;p style=&quot;margin:0px;margin-top:4px;text-align:center;&quot;&gt;&lt;b&gt;authReducer&lt;/b&gt;&lt;/p&gt;&lt;hr size=&quot;1&quot;&gt;&lt;p style=&quot;margin:0px;margin-left:4px;&quot;&gt;+ email: string&lt;/p&gt;&lt;p style=&quot;margin:0px;margin-left:4px;&quot;&gt;+ password: string&lt;/p&gt;&lt;hr size=&quot;1&quot;&gt;&lt;p style=&quot;margin:0px;margin-left:4px;&quot;&gt;+ startLogin(): Type&lt;/p&gt;&lt;p style=&quot;margin:0px;margin-left:4px;&quot;&gt;+ loginSuccess()&lt;/p&gt;&lt;p style=&quot;margin:0px;margin-left:4px;&quot;&gt;+ removeError()&lt;/p&gt;&lt;p style=&quot;margin:0px;margin-left:4px;&quot;&gt;+ logout()&lt;/p&gt;&lt;p style=&quot;margin:0px;margin-left:4px;&quot;&gt;+ renewToken()&lt;/p&gt;&lt;p style=&quot;margin:0px;margin-left:4px;&quot;&gt;+ loginFailure()&lt;/p&gt;" style="verticalAlign=top;align=left;overflow=fill;fontSize=12;fontFamily=Helvetica;html=1;whiteSpace=wrap;" vertex="1" parent="1">
          <mxGeometry x="2040" y="115" width="160" height="170.5" as="geometry" />
        </mxCell>
        <mxCell id="1yLFMfKAnZicDxa3bDTO-47" style="edgeStyle=orthogonalEdgeStyle;rounded=0;orthogonalLoop=1;jettySize=auto;html=1;exitX=0.84;exitY=1.002;exitDx=0;exitDy=0;exitPerimeter=0;" edge="1" parent="1" source="1yLFMfKAnZicDxa3bDTO-41" target="1yLFMfKAnZicDxa3bDTO-45">
          <mxGeometry relative="1" as="geometry">
            <mxPoint x="1979.999999999999" y="255" as="sourcePoint" />
            <Array as="points">
              <mxPoint x="1980" y="255" />
              <mxPoint x="1980" y="460" />
            </Array>
          </mxGeometry>
        </mxCell>
        <mxCell id="1yLFMfKAnZicDxa3bDTO-41" value="&lt;p style=&quot;margin:0px;margin-top:4px;text-align:center;&quot;&gt;&lt;b&gt;authSagas&lt;/b&gt;&lt;/p&gt;&lt;hr size=&quot;1&quot;&gt;&lt;p style=&quot;margin:0px;margin-left:4px;&quot;&gt;+ correo: string&lt;/p&gt;&lt;p style=&quot;margin:0px;margin-left:4px;&quot;&gt;+ password: string&lt;/p&gt;&lt;hr size=&quot;1&quot;&gt;&lt;p style=&quot;margin:0px;margin-left:4px;&quot;&gt;+ loginSaga()&lt;/p&gt;" style="verticalAlign=top;align=left;overflow=fill;fontSize=12;fontFamily=Helvetica;html=1;whiteSpace=wrap;" vertex="1" parent="1">
          <mxGeometry x="1830" y="145" width="160" height="130" as="geometry" />
        </mxCell>
        <mxCell id="1yLFMfKAnZicDxa3bDTO-43" value="&lt;p style=&quot;margin:0px;margin-top:4px;text-align:center;&quot;&gt;&lt;b&gt;theme&lt;/b&gt;&lt;/p&gt;&lt;hr size=&quot;1&quot;&gt;&lt;p style=&quot;margin:0px;margin-left:4px;&quot;&gt;+ theme: Theme&lt;/p&gt;&lt;hr size=&quot;1&quot;&gt;&lt;p style=&quot;margin:0px;margin-left:4px;&quot;&gt;&lt;br&gt;&lt;/p&gt;" style="verticalAlign=top;align=left;overflow=fill;fontSize=12;fontFamily=Helvetica;html=1;whiteSpace=wrap;" vertex="1" parent="1">
          <mxGeometry x="1200" y="310" width="100" height="70" as="geometry" />
        </mxCell>
        <mxCell id="1yLFMfKAnZicDxa3bDTO-44" value="&lt;p style=&quot;margin:0px;margin-top:4px;text-align:center;&quot;&gt;&lt;b&gt;auth&lt;/b&gt;&lt;/p&gt;&lt;hr size=&quot;1&quot;&gt;&lt;p style=&quot;margin:0px;margin-left:4px;&quot;&gt;+ status:store.auth&lt;/p&gt;&lt;hr size=&quot;1&quot;&gt;&lt;p style=&quot;margin:0px;margin-left:4px;&quot;&gt;&lt;br&gt;&lt;/p&gt;" style="verticalAlign=top;align=left;overflow=fill;fontSize=12;fontFamily=Helvetica;html=1;whiteSpace=wrap;" vertex="1" parent="1">
          <mxGeometry x="1310" y="310" width="110" height="70" as="geometry" />
        </mxCell>
        <mxCell id="1yLFMfKAnZicDxa3bDTO-45" value="&lt;p style=&quot;margin:0px;margin-top:4px;text-align:center;&quot;&gt;&lt;b&gt;Store&lt;/b&gt;&lt;/p&gt;&lt;hr size=&quot;1&quot;&gt;&lt;p style=&quot;margin:0px;margin-left:4px;&quot;&gt;+ reducer&lt;/p&gt;&lt;p style=&quot;margin:0px;margin-left:4px;&quot;&gt;+ persistReducer&lt;/p&gt;&lt;p style=&quot;margin:0px;margin-left:4px;&quot;&gt;+ middleware&lt;/p&gt;&lt;p style=&quot;margin:0px;margin-left:4px;&quot;&gt;+ rootSagas&lt;/p&gt;&lt;p style=&quot;margin:0px;margin-left:4px;&quot;&gt;&lt;br&gt;&lt;/p&gt;&lt;hr size=&quot;1&quot;&gt;&lt;p style=&quot;margin:0px;margin-left:4px;&quot;&gt;&lt;br&gt;&lt;/p&gt;" style="verticalAlign=top;align=left;overflow=fill;fontSize=12;fontFamily=Helvetica;html=1;whiteSpace=wrap;" vertex="1" parent="1">
          <mxGeometry x="2120" y="395" width="160" height="110" as="geometry" />
        </mxCell>
        <mxCell id="1yLFMfKAnZicDxa3bDTO-50" style="edgeStyle=orthogonalEdgeStyle;rounded=0;orthogonalLoop=1;jettySize=auto;html=1;entryX=0.5;entryY=0;entryDx=0;entryDy=0;" edge="1" parent="1" source="1yLFMfKAnZicDxa3bDTO-49" target="1yLFMfKAnZicDxa3bDTO-45">
          <mxGeometry relative="1" as="geometry" />
        </mxCell>
        <mxCell id="1yLFMfKAnZicDxa3bDTO-49" value="&lt;p style=&quot;margin:0px;margin-top:4px;text-align:center;&quot;&gt;&lt;b&gt;themeReducer&lt;/b&gt;&lt;/p&gt;&lt;hr size=&quot;1&quot;&gt;&lt;p style=&quot;margin:0px;margin-left:4px;&quot;&gt;+ theme: Theme&lt;/p&gt;&lt;p style=&quot;margin:0px;margin-left:4px;&quot;&gt;+ defaultTheme: DefaultTheme&lt;/p&gt;&lt;hr size=&quot;1&quot;&gt;&lt;p style=&quot;margin:0px;margin-left:4px;&quot;&gt;+ setLightTheme()&lt;/p&gt;&lt;p style=&quot;margin:0px;margin-left:4px;&quot;&gt;+ setDarkTheme()&lt;/p&gt;&lt;p style=&quot;margin:0px;margin-left:4px;&quot;&gt;&lt;br&gt;&lt;/p&gt;" style="verticalAlign=top;align=left;overflow=fill;fontSize=12;fontFamily=Helvetica;html=1;whiteSpace=wrap;" vertex="1" parent="1">
          <mxGeometry x="2230" y="115" width="190" height="110" as="geometry" />
        </mxCell>
        <mxCell id="1yLFMfKAnZicDxa3bDTO-51" style="edgeStyle=orthogonalEdgeStyle;rounded=0;orthogonalLoop=1;jettySize=auto;html=1;entryX=1.01;entryY=0.334;entryDx=0;entryDy=0;entryPerimeter=0;" edge="1" parent="1" source="1yLFMfKAnZicDxa3bDTO-39" target="1yLFMfKAnZicDxa3bDTO-41">
          <mxGeometry relative="1" as="geometry">
            <mxPoint x="2002.08" y="211.97000000000003" as="targetPoint" />
          </mxGeometry>
        </mxCell>
        <mxCell id="1yLFMfKAnZicDxa3bDTO-52" value="&lt;p style=&quot;margin:0px;margin-top:6px;text-align:center;&quot;&gt;&lt;b&gt;HomeScreen&lt;/b&gt;&lt;/p&gt;&lt;hr&gt;&lt;p style=&quot;margin:0px;margin-left:8px;&quot;&gt;+ Attribute1: Type&lt;br&gt;+ Attribute2: Type&lt;/p&gt;" style="align=left;overflow=fill;html=1;dropTarget=0;whiteSpace=wrap;" vertex="1" parent="1">
          <mxGeometry x="1200" y="550" width="180" height="90" as="geometry" />
        </mxCell>
        <mxCell id="1yLFMfKAnZicDxa3bDTO-53" value="" style="shape=component;jettyWidth=8;jettyHeight=4;" vertex="1" parent="1yLFMfKAnZicDxa3bDTO-52">
          <mxGeometry x="1" width="20" height="20" relative="1" as="geometry">
            <mxPoint x="-24" y="4" as="offset" />
          </mxGeometry>
        </mxCell>
        <mxCell id="1yLFMfKAnZicDxa3bDTO-55" value="&lt;h1&gt;React Native&lt;/h1&gt;&lt;p&gt;redux-toolkit, axios, typescript&lt;/p&gt;" style="text;html=1;strokeColor=none;fillColor=none;spacing=5;spacingTop=-20;whiteSpace=wrap;overflow=hidden;rounded=0;" vertex="1" parent="1">
          <mxGeometry x="970" y="110" width="190" height="120" as="geometry" />
        </mxCell>
        <mxCell id="1yLFMfKAnZicDxa3bDTO-56" value="&lt;h1&gt;Base de datos&lt;/h1&gt;&lt;p&gt;Mongo atlas&lt;/p&gt;" style="text;html=1;strokeColor=none;fillColor=none;spacing=5;spacingTop=-20;whiteSpace=wrap;overflow=hidden;rounded=0;" vertex="1" parent="1">
          <mxGeometry x="-1840" y="65" width="200" height="80" as="geometry" />
        </mxCell>
        <mxCell id="1yLFMfKAnZicDxa3bDTO-57" value="&lt;h1&gt;NodeJS&lt;/h1&gt;&lt;p&gt;bcryptjs, cors, dotenv, express, jsonwebtoken, mongoose, morgan, uuid&lt;/p&gt;" style="text;html=1;strokeColor=none;fillColor=none;spacing=5;spacingTop=-20;whiteSpace=wrap;overflow=hidden;rounded=0;" vertex="1" parent="1">
          <mxGeometry x="-570" y="30" width="190" height="120" as="geometry" />
        </mxCell>
        <mxCell id="1yLFMfKAnZicDxa3bDTO-58" value="&lt;p style=&quot;margin:0px;margin-top:4px;text-align:center;&quot;&gt;&lt;i&gt;&amp;lt;&amp;lt;Interface&amp;gt;&amp;gt;&lt;/i&gt;&lt;br&gt;&lt;b&gt;LoginData&lt;/b&gt;&lt;/p&gt;&lt;hr size=&quot;1&quot;&gt;&lt;p style=&quot;margin:0px;margin-left:4px;&quot;&gt;+ correo: string&lt;br&gt;+ password: string&lt;/p&gt;&lt;hr size=&quot;1&quot;&gt;&lt;p style=&quot;margin:0px;margin-left:4px;&quot;&gt;&lt;br&gt;&lt;/p&gt;" style="verticalAlign=top;align=left;overflow=fill;fontSize=12;fontFamily=Helvetica;html=1;whiteSpace=wrap;" vertex="1" parent="1">
          <mxGeometry x="890" y="690" width="190" height="110" as="geometry" />
        </mxCell>
        <mxCell id="1yLFMfKAnZicDxa3bDTO-59" value="&lt;p style=&quot;margin:0px;margin-top:4px;text-align:center;&quot;&gt;&lt;i&gt;&amp;lt;&amp;lt;Interface&amp;gt;&amp;gt;&lt;/i&gt;&lt;br&gt;&lt;b&gt;LoginResponse&lt;/b&gt;&lt;/p&gt;&lt;hr size=&quot;1&quot;&gt;&lt;p style=&quot;margin:0px;margin-left:4px;&quot;&gt;+ usuario: Usuario&lt;br&gt;+ token: string&lt;/p&gt;&lt;hr size=&quot;1&quot;&gt;&lt;p style=&quot;margin:0px;margin-left:4px;&quot;&gt;&lt;br&gt;&lt;/p&gt;" style="verticalAlign=top;align=left;overflow=fill;fontSize=12;fontFamily=Helvetica;html=1;whiteSpace=wrap;" vertex="1" parent="1">
          <mxGeometry x="1090" y="690" width="190" height="110" as="geometry" />
        </mxCell>
        <mxCell id="1yLFMfKAnZicDxa3bDTO-62" value="&lt;p style=&quot;margin:0px;margin-top:4px;text-align:center;&quot;&gt;&lt;i&gt;&amp;lt;&amp;lt;Interface&amp;gt;&amp;gt;&lt;/i&gt;&lt;br&gt;&lt;b&gt;Usuario&lt;/b&gt;&lt;/p&gt;&lt;hr size=&quot;1&quot;&gt;&lt;p style=&quot;margin:0px;margin-left:4px;&quot;&gt;+ rol: string&lt;br&gt;+ estado: string&lt;/p&gt;&lt;p style=&quot;margin:0px;margin-left:4px;&quot;&gt;+ nombre: string&lt;/p&gt;&lt;p style=&quot;margin:0px;margin-left:4px;&quot;&gt;+ correo: string&lt;/p&gt;&lt;p style=&quot;margin:0px;margin-left:4px;&quot;&gt;+ uid: string&lt;/p&gt;&lt;p style=&quot;margin:0px;margin-left:4px;&quot;&gt;&amp;nbsp; &amp;nbsp;img: string&lt;/p&gt;&lt;hr size=&quot;1&quot;&gt;&lt;p style=&quot;margin:0px;margin-left:4px;&quot;&gt;&lt;br&gt;&lt;/p&gt;" style="verticalAlign=top;align=left;overflow=fill;fontSize=12;fontFamily=Helvetica;html=1;whiteSpace=wrap;" vertex="1" parent="1">
          <mxGeometry x="890" y="820" width="190" height="170" as="geometry" />
        </mxCell>
        <mxCell id="1yLFMfKAnZicDxa3bDTO-63" style="edgeStyle=orthogonalEdgeStyle;rounded=0;orthogonalLoop=1;jettySize=auto;html=1;exitX=0.5;exitY=1;exitDx=0;exitDy=0;" edge="1" parent="1" source="1yLFMfKAnZicDxa3bDTO-62" target="1yLFMfKAnZicDxa3bDTO-62">
          <mxGeometry relative="1" as="geometry" />
        </mxCell>
        <mxCell id="1yLFMfKAnZicDxa3bDTO-64" value="&lt;p style=&quot;margin:0px;margin-top:6px;text-align:center;&quot;&gt;&lt;b&gt;Background&lt;/b&gt;&lt;/p&gt;&lt;hr&gt;&lt;p style=&quot;margin:0px;margin-left:8px;&quot;&gt;+ theme: store.theme&lt;br&gt;&lt;br&gt;&lt;/p&gt;" style="align=left;overflow=fill;html=1;dropTarget=0;whiteSpace=wrap;" vertex="1" parent="1">
          <mxGeometry x="1310" y="700" width="180" height="90" as="geometry" />
        </mxCell>
        <mxCell id="1yLFMfKAnZicDxa3bDTO-65" value="" style="shape=component;jettyWidth=8;jettyHeight=4;" vertex="1" parent="1yLFMfKAnZicDxa3bDTO-64">
          <mxGeometry x="1" width="20" height="20" relative="1" as="geometry">
            <mxPoint x="-24" y="4" as="offset" />
          </mxGeometry>
        </mxCell>
        <mxCell id="1yLFMfKAnZicDxa3bDTO-66" value="Â«HookÂ»&lt;br&gt;&lt;b&gt;useForm&lt;/b&gt;" style="html=1;dropTarget=0;whiteSpace=wrap;verticalAlign=top;" vertex="1" parent="1">
          <mxGeometry x="2530" y="115" width="190" height="165" as="geometry" />
        </mxCell>
        <mxCell id="1yLFMfKAnZicDxa3bDTO-67" value="" style="shape=module;jettyWidth=8;jettyHeight=4;" vertex="1" parent="1yLFMfKAnZicDxa3bDTO-66">
          <mxGeometry x="1" width="20" height="20" relative="1" as="geometry">
            <mxPoint x="-27" y="7" as="offset" />
          </mxGeometry>
        </mxCell>
        <mxCell id="1yLFMfKAnZicDxa3bDTO-68" value="&lt;p style=&quot;margin:0px;margin-top:4px;text-align:center;&quot;&gt;&lt;b&gt;useForm&lt;/b&gt;&lt;/p&gt;&lt;hr size=&quot;1&quot;&gt;&lt;p style=&quot;margin:0px;margin-left:4px;&quot;&gt;+ initialState: &amp;lt;T&amp;gt;&lt;/p&gt;&lt;hr size=&quot;1&quot;&gt;&lt;p style=&quot;margin:0px;margin-left:4px;&quot;&gt;+ onChange():void&lt;/p&gt;" style="verticalAlign=top;align=left;overflow=fill;fontSize=12;fontFamily=Helvetica;html=1;whiteSpace=wrap;" vertex="1" parent="1">
          <mxGeometry x="2545" y="180" width="160" height="90" as="geometry" />
        </mxCell>
        <mxCell id="1yLFMfKAnZicDxa3bDTO-69" value="&lt;p style=&quot;margin:0px;margin-top:6px;text-align:center;&quot;&gt;&lt;b&gt;HeaderTitle&lt;/b&gt;&lt;/p&gt;&lt;hr&gt;&lt;p style=&quot;margin:0px;margin-left:8px;&quot;&gt;+ top: useSafeAreaInsets&lt;br&gt;+ theme: store.theme&lt;/p&gt;" style="align=left;overflow=fill;html=1;dropTarget=0;whiteSpace=wrap;" vertex="1" parent="1">
          <mxGeometry x="1310" y="810" width="180" height="90" as="geometry" />
        </mxCell>
        <mxCell id="1yLFMfKAnZicDxa3bDTO-70" value="" style="shape=component;jettyWidth=8;jettyHeight=4;" vertex="1" parent="1yLFMfKAnZicDxa3bDTO-69">
          <mxGeometry x="1" width="20" height="20" relative="1" as="geometry">
            <mxPoint x="-24" y="4" as="offset" />
          </mxGeometry>
        </mxCell>
        <mxCell id="1yLFMfKAnZicDxa3bDTO-71" value="&lt;p style=&quot;margin:0px;margin-top:6px;text-align:center;&quot;&gt;&lt;b&gt;WhiteLogo&lt;/b&gt;&lt;/p&gt;&lt;hr&gt;&lt;p style=&quot;margin:0px;margin-left:8px;&quot;&gt;+ Image:&lt;br&gt;&lt;br&gt;&lt;/p&gt;" style="align=left;overflow=fill;html=1;dropTarget=0;whiteSpace=wrap;" vertex="1" parent="1">
          <mxGeometry x="1510" y="700" width="180" height="70" as="geometry" />
        </mxCell>
        <mxCell id="1yLFMfKAnZicDxa3bDTO-72" value="" style="shape=component;jettyWidth=8;jettyHeight=4;" vertex="1" parent="1yLFMfKAnZicDxa3bDTO-71">
          <mxGeometry x="1" width="20" height="20" relative="1" as="geometry">
            <mxPoint x="-24" y="4" as="offset" />
          </mxGeometry>
        </mxCell>
        <mxCell id="1yLFMfKAnZicDxa3bDTO-76" style="edgeStyle=orthogonalEdgeStyle;rounded=0;orthogonalLoop=1;jettySize=auto;html=1;" edge="1" parent="1" source="1yLFMfKAnZicDxa3bDTO-73" target="1yLFMfKAnZicDxa3bDTO-75">
          <mxGeometry relative="1" as="geometry" />
        </mxCell>
        <mxCell id="1yLFMfKAnZicDxa3bDTO-79" value="Models" style="shape=module;align=left;spacingLeft=20;align=center;verticalAlign=top;whiteSpace=wrap;html=1;" vertex="1" parent="1">
          <mxGeometry x="-840" y="840" width="1350" height="210" as="geometry" />
        </mxCell>
        <mxCell id="1yLFMfKAnZicDxa3bDTO-101" value="&lt;p style=&quot;margin:0px;margin-top:4px;text-align:center;&quot;&gt;&lt;b&gt;Role&lt;/b&gt;&lt;/p&gt;&lt;hr size=&quot;1&quot;&gt;&lt;p style=&quot;margin:0px;margin-left:4px;&quot;&gt;+ rol: string&lt;/p&gt;&lt;hr size=&quot;1&quot;&gt;&lt;p style=&quot;margin:0px;margin-left:4px;&quot;&gt;&lt;br&gt;&lt;/p&gt;" style="verticalAlign=top;align=left;overflow=fill;fontSize=12;fontFamily=Helvetica;html=1;whiteSpace=wrap;" vertex="1" parent="1">
          <mxGeometry x="-800" y="860" width="160" height="70" as="geometry" />
        </mxCell>
        <mxCell id="1yLFMfKAnZicDxa3bDTO-102" value="" style="group" vertex="1" connectable="0" parent="1">
          <mxGeometry x="-130" y="50" width="260" height="130" as="geometry" />
        </mxCell>
        <mxCell id="1yLFMfKAnZicDxa3bDTO-73" value="Application" style="shape=module;align=left;spacingLeft=20;align=center;verticalAlign=top;whiteSpace=wrap;html=1;" vertex="1" parent="1yLFMfKAnZicDxa3bDTO-102">
          <mxGeometry width="260" height="130" as="geometry" />
        </mxCell>
        <mxCell id="1yLFMfKAnZicDxa3bDTO-74" value="&lt;p style=&quot;margin:0px;margin-top:4px;text-align:center;&quot;&gt;&lt;b&gt;App&lt;/b&gt;&lt;/p&gt;&lt;hr size=&quot;1&quot;&gt;&lt;p style=&quot;margin:0px;margin-left:4px;&quot;&gt;&lt;br&gt;&lt;/p&gt;&lt;hr size=&quot;1&quot;&gt;&lt;p style=&quot;margin:0px;margin-left:4px;&quot;&gt;+ server()&lt;/p&gt;" style="verticalAlign=top;align=left;overflow=fill;fontSize=12;fontFamily=Helvetica;html=1;whiteSpace=wrap;" vertex="1" parent="1yLFMfKAnZicDxa3bDTO-102">
          <mxGeometry x="70" y="42.5" width="160" height="75" as="geometry" />
        </mxCell>
        <mxCell id="1yLFMfKAnZicDxa3bDTO-103" value="" style="group" vertex="1" connectable="0" parent="1">
          <mxGeometry x="-460" y="130" width="240" height="220" as="geometry" />
        </mxCell>
        <mxCell id="1yLFMfKAnZicDxa3bDTO-75" value="Server" style="shape=module;align=left;spacingLeft=20;align=center;verticalAlign=top;whiteSpace=wrap;html=1;" vertex="1" parent="1yLFMfKAnZicDxa3bDTO-103">
          <mxGeometry width="240" height="220" as="geometry" />
        </mxCell>
        <mxCell id="1yLFMfKAnZicDxa3bDTO-77" value="&lt;p style=&quot;margin:0px;margin-top:4px;text-align:center;&quot;&gt;&lt;b&gt;Server&lt;/b&gt;&lt;/p&gt;&lt;hr size=&quot;1&quot;&gt;&lt;p style=&quot;margin:0px;margin-left:4px;&quot;&gt;+ app: Application&lt;/p&gt;&lt;p style=&quot;margin:0px;margin-left:4px;&quot;&gt;+ port: string&lt;/p&gt;&lt;p style=&quot;margin:0px;margin-left:4px;&quot;&gt;+ paths: Object&lt;/p&gt;&lt;hr size=&quot;1&quot;&gt;&lt;p style=&quot;margin:0px;margin-left:4px;&quot;&gt;+ contructor(): void&lt;/p&gt;&lt;p style=&quot;margin:0px;margin-left:4px;&quot;&gt;+ middlewares(): void&lt;/p&gt;&lt;p style=&quot;margin:0px;margin-left:4px;&quot;&gt;+ router(): void&lt;/p&gt;&lt;p style=&quot;margin:0px;margin-left:4px;&quot;&gt;+ listen(): void&lt;/p&gt;" style="verticalAlign=top;align=left;overflow=fill;fontSize=12;fontFamily=Helvetica;html=1;whiteSpace=wrap;" vertex="1" parent="1yLFMfKAnZicDxa3bDTO-103">
          <mxGeometry x="30" y="37.5" width="160" height="165" as="geometry" />
        </mxCell>
        <mxCell id="1yLFMfKAnZicDxa3bDTO-104" value="" style="group" vertex="1" connectable="0" parent="1">
          <mxGeometry x="-820" y="380" width="1640" height="180" as="geometry" />
        </mxCell>
        <mxCell id="1yLFMfKAnZicDxa3bDTO-78" value="Routes" style="shape=module;align=left;spacingLeft=20;align=center;verticalAlign=top;whiteSpace=wrap;html=1;container=0;" vertex="1" parent="1yLFMfKAnZicDxa3bDTO-104">
          <mxGeometry width="1640" height="180" as="geometry" />
        </mxCell>
        <mxCell id="1yLFMfKAnZicDxa3bDTO-81" value="&lt;p style=&quot;margin:0px;margin-top:4px;text-align:center;text-decoration:underline;&quot;&gt;&lt;b&gt;auth:Router&lt;/b&gt;&lt;/p&gt;&lt;hr&gt;&lt;p style=&quot;margin:0px;margin-left:8px;&quot;&gt;post(/,login)&lt;br&gt;post(/,googleSignin)&lt;br&gt;get(/,validarTokenUsuario)&lt;/p&gt;" style="verticalAlign=top;align=left;overflow=fill;fontSize=12;fontFamily=Helvetica;html=1;whiteSpace=wrap;container=0;" vertex="1" parent="1yLFMfKAnZicDxa3bDTO-104">
          <mxGeometry x="30" y="30" width="150" height="90" as="geometry" />
        </mxCell>
        <mxCell id="1yLFMfKAnZicDxa3bDTO-84" value="&lt;p style=&quot;margin:0px;margin-top:4px;text-align:center;text-decoration:underline;&quot;&gt;&lt;b&gt;buscar:Router&lt;/b&gt;&lt;/p&gt;&lt;hr&gt;&lt;p style=&quot;margin:0px;margin-left:8px;&quot;&gt;get(/:colection/:termino, buscar)&lt;br&gt;&lt;br&gt;&lt;/p&gt;" style="verticalAlign=top;align=left;overflow=fill;fontSize=12;fontFamily=Helvetica;html=1;whiteSpace=wrap;container=0;" vertex="1" parent="1yLFMfKAnZicDxa3bDTO-104">
          <mxGeometry x="1062" y="30" width="186" height="55" as="geometry" />
        </mxCell>
        <mxCell id="1yLFMfKAnZicDxa3bDTO-86" value="&lt;p style=&quot;margin:0px;margin-top:4px;text-align:center;text-decoration:underline;&quot;&gt;&lt;b&gt;categorias:Router&lt;/b&gt;&lt;/p&gt;&lt;hr&gt;&lt;p style=&quot;margin:0px;margin-left:8px;&quot;&gt;get(/, obtenerCategorias)&lt;br&gt;get(/:id, obtenerCategoria)&lt;br&gt;post(/, crearCategoria)&lt;/p&gt;&lt;p style=&quot;margin:0px;margin-left:8px;&quot;&gt;put(/:id,actualizarCategoria)&lt;/p&gt;&lt;p style=&quot;margin:0px;margin-left:8px;&quot;&gt;delete(/:id, borrarCategoria)&lt;/p&gt;" style="verticalAlign=top;align=left;overflow=fill;fontSize=12;fontFamily=Helvetica;html=1;whiteSpace=wrap;container=0;" vertex="1" parent="1yLFMfKAnZicDxa3bDTO-104">
          <mxGeometry x="890" y="30" width="160" height="120" as="geometry" />
        </mxCell>
        <mxCell id="1yLFMfKAnZicDxa3bDTO-87" value="&lt;p style=&quot;margin:0px;margin-top:4px;text-align:center;text-decoration:underline;&quot;&gt;&lt;b&gt;items:Router&lt;/b&gt;&lt;/p&gt;&lt;hr&gt;&lt;p style=&quot;margin:0px;margin-left:8px;&quot;&gt;post(/,crearItem)&lt;br&gt;get(/,obtenerItems)&lt;br&gt;get(/:id, obtenerItemPorId)&lt;/p&gt;&lt;p style=&quot;margin:0px;margin-left:8px;&quot;&gt;put(/:id, actualizarItem)&lt;/p&gt;&lt;p style=&quot;margin:0px;margin-left:8px;&quot;&gt;delete(/:id, eliminarItem)&lt;/p&gt;" style="verticalAlign=top;align=left;overflow=fill;fontSize=12;fontFamily=Helvetica;html=1;whiteSpace=wrap;container=0;" vertex="1" parent="1yLFMfKAnZicDxa3bDTO-104">
          <mxGeometry x="380" y="30" width="160" height="120" as="geometry" />
        </mxCell>
        <mxCell id="1yLFMfKAnZicDxa3bDTO-88" value="&lt;p style=&quot;margin:0px;margin-top:4px;text-align:center;text-decoration:underline;&quot;&gt;&lt;b&gt;listas:Router&lt;/b&gt;&lt;/p&gt;&lt;hr&gt;&lt;p style=&quot;margin:0px;margin-left:8px;&quot;&gt;get(/, obtenerListas)&lt;br&gt;get(/:id, obtenerListaPorId)&lt;br&gt;post(/, crearLista)&lt;/p&gt;&lt;p style=&quot;margin:0px;margin-left:8px;&quot;&gt;put(/:id, actualizarLista)&lt;/p&gt;&lt;p style=&quot;margin:0px;margin-left:8px;&quot;&gt;delete(/:id, eliminarLista)&lt;/p&gt;" style="verticalAlign=top;align=left;overflow=fill;fontSize=12;fontFamily=Helvetica;html=1;whiteSpace=wrap;container=0;" vertex="1" parent="1yLFMfKAnZicDxa3bDTO-104">
          <mxGeometry x="550" y="30" width="160" height="110" as="geometry" />
        </mxCell>
        <mxCell id="1yLFMfKAnZicDxa3bDTO-89" value="&lt;p style=&quot;margin:0px;margin-top:4px;text-align:center;text-decoration:underline;&quot;&gt;&lt;b&gt;producto:Router&lt;/b&gt;&lt;/p&gt;&lt;hr&gt;&lt;p style=&quot;margin:0px;margin-left:8px;&quot;&gt;get(/, obtenerProducto)&lt;br&gt;get(/:id, obtenerProducto)&lt;br&gt;post(/, crearProducto)&lt;/p&gt;&lt;p style=&quot;margin:0px;margin-left:8px;&quot;&gt;put(/:id, actualizarProducto)&lt;/p&gt;&lt;p style=&quot;margin:0px;margin-left:8px;&quot;&gt;delete(/:id, borrarProducto)&lt;/p&gt;" style="verticalAlign=top;align=left;overflow=fill;fontSize=12;fontFamily=Helvetica;html=1;whiteSpace=wrap;container=0;" vertex="1" parent="1yLFMfKAnZicDxa3bDTO-104">
          <mxGeometry x="720" y="30" width="160" height="110" as="geometry" />
        </mxCell>
        <mxCell id="1yLFMfKAnZicDxa3bDTO-90" value="&lt;p style=&quot;margin:0px;margin-top:4px;text-align:center;text-decoration:underline;&quot;&gt;&lt;b&gt;uploads:Router&lt;/b&gt;&lt;/p&gt;&lt;hr&gt;&lt;p style=&quot;margin:0px;margin-left:8px;&quot;&gt;post(/, cargarArchivo)&lt;br&gt;put(/:coleccion/:id, actualizarImagenCloudinary)&lt;br&gt;get(/:coleccion/:id, mostrarImagen)&lt;/p&gt;" style="verticalAlign=top;align=left;overflow=fill;fontSize=12;fontFamily=Helvetica;html=1;whiteSpace=wrap;container=0;" vertex="1" parent="1yLFMfKAnZicDxa3bDTO-104">
          <mxGeometry x="1260" y="30" width="280" height="90" as="geometry" />
        </mxCell>
        <mxCell id="1yLFMfKAnZicDxa3bDTO-91" value="&lt;p style=&quot;margin:0px;margin-top:4px;text-align:center;text-decoration:underline;&quot;&gt;&lt;b&gt;usuarios:Router&lt;/b&gt;&lt;/p&gt;&lt;hr&gt;&lt;p style=&quot;margin:0px;margin-left:8px;&quot;&gt;get(/, usuarioGet)&lt;/p&gt;&lt;p style=&quot;margin:0px;margin-left:8px;&quot;&gt;put(/:id, usuarioPut)&lt;/p&gt;&lt;p style=&quot;margin:0px;margin-left:8px;&quot;&gt;post(/, validarCampos)&lt;/p&gt;&lt;p style=&quot;margin:0px;margin-left:8px;&quot;&gt;delete( /:id, usuariosDelete)&lt;/p&gt;&lt;p style=&quot;margin:0px;margin-left:8px;&quot;&gt;patch(/, usuariosPatch)&lt;/p&gt;" style="verticalAlign=top;align=left;overflow=fill;fontSize=12;fontFamily=Helvetica;html=1;whiteSpace=wrap;container=0;" vertex="1" parent="1yLFMfKAnZicDxa3bDTO-104">
          <mxGeometry x="190" y="30" width="180" height="110" as="geometry" />
        </mxCell>
        <mxCell id="1yLFMfKAnZicDxa3bDTO-105" style="edgeStyle=orthogonalEdgeStyle;rounded=0;orthogonalLoop=1;jettySize=auto;html=1;" edge="1" parent="1" source="1yLFMfKAnZicDxa3bDTO-81" target="8_4pCXizMDxoQlKzlbWR-4">
          <mxGeometry relative="1" as="geometry" />
        </mxCell>
        <mxCell id="1yLFMfKAnZicDxa3bDTO-106" style="edgeStyle=orthogonalEdgeStyle;rounded=0;orthogonalLoop=1;jettySize=auto;html=1;" edge="1" parent="1" source="1yLFMfKAnZicDxa3bDTO-91" target="8_4pCXizMDxoQlKzlbWR-3">
          <mxGeometry relative="1" as="geometry" />
        </mxCell>
        <mxCell id="1yLFMfKAnZicDxa3bDTO-107" style="edgeStyle=orthogonalEdgeStyle;rounded=0;orthogonalLoop=1;jettySize=auto;html=1;" edge="1" parent="1" source="1yLFMfKAnZicDxa3bDTO-87" target="1yLFMfKAnZicDxa3bDTO-95">
          <mxGeometry relative="1" as="geometry" />
        </mxCell>
        <mxCell id="1yLFMfKAnZicDxa3bDTO-108" style="edgeStyle=orthogonalEdgeStyle;rounded=0;orthogonalLoop=1;jettySize=auto;html=1;" edge="1" parent="1" source="1yLFMfKAnZicDxa3bDTO-88" target="1yLFMfKAnZicDxa3bDTO-94">
          <mxGeometry relative="1" as="geometry" />
        </mxCell>
        <mxCell id="1yLFMfKAnZicDxa3bDTO-110" style="edgeStyle=orthogonalEdgeStyle;rounded=0;orthogonalLoop=1;jettySize=auto;html=1;entryX=0.5;entryY=0;entryDx=0;entryDy=0;" edge="1" parent="1" source="1yLFMfKAnZicDxa3bDTO-75" target="1yLFMfKAnZicDxa3bDTO-78">
          <mxGeometry relative="1" as="geometry" />
        </mxCell>
        <mxCell id="1yLFMfKAnZicDxa3bDTO-112" style="edgeStyle=orthogonalEdgeStyle;rounded=0;orthogonalLoop=1;jettySize=auto;html=1;entryX=0.5;entryY=0;entryDx=0;entryDy=0;" edge="1" parent="1" source="1yLFMfKAnZicDxa3bDTO-89" target="1yLFMfKAnZicDxa3bDTO-111">
          <mxGeometry relative="1" as="geometry" />
        </mxCell>
        <mxCell id="1yLFMfKAnZicDxa3bDTO-113" style="edgeStyle=orthogonalEdgeStyle;rounded=0;orthogonalLoop=1;jettySize=auto;html=1;entryX=0.5;entryY=0;entryDx=0;entryDy=0;" edge="1" parent="1" source="1yLFMfKAnZicDxa3bDTO-86" target="1yLFMfKAnZicDxa3bDTO-100">
          <mxGeometry relative="1" as="geometry" />
        </mxCell>
        <mxCell id="1yLFMfKAnZicDxa3bDTO-114" style="edgeStyle=orthogonalEdgeStyle;rounded=0;orthogonalLoop=1;jettySize=auto;html=1;entryX=0.5;entryY=0;entryDx=0;entryDy=0;" edge="1" parent="1" source="1yLFMfKAnZicDxa3bDTO-84" target="1yLFMfKAnZicDxa3bDTO-98">
          <mxGeometry relative="1" as="geometry" />
        </mxCell>
        <mxCell id="1yLFMfKAnZicDxa3bDTO-115" style="edgeStyle=orthogonalEdgeStyle;rounded=0;orthogonalLoop=1;jettySize=auto;html=1;" edge="1" parent="1" source="1yLFMfKAnZicDxa3bDTO-90" target="1yLFMfKAnZicDxa3bDTO-99">
          <mxGeometry relative="1" as="geometry" />
        </mxCell>
        <mxCell id="1yLFMfKAnZicDxa3bDTO-117" value="" style="group" vertex="1" connectable="0" parent="1">
          <mxGeometry x="-950" y="600" width="1800" height="215" as="geometry" />
        </mxCell>
        <mxCell id="1yLFMfKAnZicDxa3bDTO-80" value="Controllers" style="shape=module;align=left;spacingLeft=20;align=center;verticalAlign=top;whiteSpace=wrap;html=1;" vertex="1" parent="1yLFMfKAnZicDxa3bDTO-117">
          <mxGeometry width="1800" height="215" as="geometry" />
        </mxCell>
        <mxCell id="8_4pCXizMDxoQlKzlbWR-3" value="&lt;p style=&quot;margin:0px;margin-top:4px;text-align:center;&quot;&gt;&lt;b&gt;Usuarios&lt;/b&gt;&lt;/p&gt;&lt;hr size=&quot;1&quot;&gt;&lt;p style=&quot;margin:0px;margin-left:4px;&quot;&gt;+ usuario: Usuario&lt;/p&gt;&lt;hr size=&quot;1&quot;&gt;&lt;p style=&quot;margin:0px;margin-left:4px;&quot;&gt;+ usuariosGet():Promise&amp;lt;&amp;gt;&lt;/p&gt;&lt;p style=&quot;margin:0px;margin-left:4px;&quot;&gt;+ usuariosPost():Promise&amp;lt;&amp;gt;&lt;/p&gt;&lt;p style=&quot;margin:0px;margin-left:4px;&quot;&gt;+ usuariosPut():Promise&amp;lt;&amp;gt;&lt;/p&gt;&lt;p style=&quot;margin:0px;margin-left:4px;&quot;&gt;+ usuariosPatch():void&lt;/p&gt;&lt;p style=&quot;margin:0px;margin-left:4px;&quot;&gt;+ usuariosDelete():Promise&amp;lt;&amp;gt;&lt;/p&gt;&lt;p style=&quot;margin:0px;margin-left:4px;&quot;&gt;&lt;br&gt;&lt;/p&gt;" style="verticalAlign=top;align=left;overflow=fill;fontSize=12;fontFamily=Helvetica;html=1;whiteSpace=wrap;" parent="1yLFMfKAnZicDxa3bDTO-117" vertex="1">
          <mxGeometry x="230" y="25" width="170" height="140" as="geometry" />
        </mxCell>
        <mxCell id="8_4pCXizMDxoQlKzlbWR-4" value="&lt;p style=&quot;margin:0px;margin-top:4px;text-align:center;&quot;&gt;&lt;b&gt;Auth&lt;/b&gt;&lt;/p&gt;&lt;hr size=&quot;1&quot;&gt;&lt;p style=&quot;margin:0px;margin-left:4px;&quot;&gt;+ {correo, password}: Object&lt;/p&gt;&lt;hr size=&quot;1&quot;&gt;&lt;p style=&quot;margin:0px;margin-left:4px;&quot;&gt;+ login(): Promise&amp;lt;&amp;gt;&lt;/p&gt;&lt;p style=&quot;margin:0px;margin-left:4px;&quot;&gt;+ googleSignin: Promise&amp;lt;&amp;gt;&lt;/p&gt;&lt;p style=&quot;margin:0px;margin-left:4px;&quot;&gt;+validarTokenUsuario:Promise&amp;lt;&amp;gt;&lt;/p&gt;" style="verticalAlign=top;align=left;overflow=fill;fontSize=12;fontFamily=Helvetica;html=1;whiteSpace=wrap;" parent="1yLFMfKAnZicDxa3bDTO-117" vertex="1">
          <mxGeometry x="30" y="25" width="190" height="110" as="geometry" />
        </mxCell>
        <mxCell id="rXWK24yErsD0leZuDPwI-8" value="&lt;p style=&quot;margin:0px;margin-top:4px;text-align:center;&quot;&gt;&lt;b&gt;Notas&lt;/b&gt;&lt;/p&gt;&lt;hr size=&quot;1&quot;&gt;&lt;p style=&quot;margin:0px;margin-left:4px;&quot;&gt;+ nota: Nota&lt;/p&gt;&lt;hr size=&quot;1&quot;&gt;&lt;p style=&quot;margin:0px;margin-left:4px;&quot;&gt;+ save(): Nota&lt;/p&gt;&lt;p style=&quot;margin:0px;margin-left:4px;&quot;&gt;+ update(): Nota&lt;/p&gt;&lt;p style=&quot;margin:0px;margin-left:4px;&quot;&gt;+ delete: Nota&lt;/p&gt;&lt;p style=&quot;margin:0px;margin-left:4px;&quot;&gt;+ get(): Nota&lt;/p&gt;" style="verticalAlign=top;align=left;overflow=fill;fontSize=12;fontFamily=Helvetica;html=1;whiteSpace=wrap;" parent="1yLFMfKAnZicDxa3bDTO-117" vertex="1">
          <mxGeometry x="1630" y="30" width="110" height="120.5" as="geometry" />
        </mxCell>
        <mxCell id="1yLFMfKAnZicDxa3bDTO-94" value="&lt;p style=&quot;margin:0px;margin-top:4px;text-align:center;&quot;&gt;&lt;b&gt;Listas&lt;/b&gt;&lt;/p&gt;&lt;hr size=&quot;1&quot;&gt;&lt;p style=&quot;margin:0px;margin-left:4px;&quot;&gt;+ lista: Lista&lt;/p&gt;&lt;hr size=&quot;1&quot;&gt;&lt;p style=&quot;margin:0px;margin-left:4px;&quot;&gt;+ obtenerListas(): Promise&lt;/p&gt;&lt;p style=&quot;margin:0px;margin-left:4px;&quot;&gt;+ obtenerListaPorId: Promise&lt;/p&gt;&lt;p style=&quot;margin:0px;margin-left:4px;&quot;&gt;+ crearLista: Promise&lt;/p&gt;&lt;p style=&quot;margin:0px;margin-left:4px;&quot;&gt;+ actualizarLista: Promise&lt;/p&gt;&lt;p style=&quot;margin:0px;margin-left:4px;&quot;&gt;+ eliminarLista: Promise&lt;/p&gt;" style="verticalAlign=top;align=left;overflow=fill;fontSize=12;fontFamily=Helvetica;html=1;whiteSpace=wrap;" vertex="1" parent="1yLFMfKAnZicDxa3bDTO-117">
          <mxGeometry x="590" y="25" width="170" height="140" as="geometry" />
        </mxCell>
        <mxCell id="1yLFMfKAnZicDxa3bDTO-95" value="&lt;p style=&quot;margin:0px;margin-top:4px;text-align:center;&quot;&gt;&lt;b&gt;Items&lt;/b&gt;&lt;/p&gt;&lt;hr size=&quot;1&quot;&gt;&lt;p style=&quot;margin:0px;margin-left:4px;&quot;&gt;+ item: Item&lt;/p&gt;&lt;hr size=&quot;1&quot;&gt;&lt;p style=&quot;margin:0px;margin-left:4px;&quot;&gt;+ obtenerItems(): Promise&lt;/p&gt;&lt;p style=&quot;margin:0px;margin-left:4px;&quot;&gt;+ obtenerItemPorId: Promise&lt;/p&gt;&lt;p style=&quot;margin:0px;margin-left:4px;&quot;&gt;+ crearItem: Promise&lt;/p&gt;&lt;p style=&quot;margin:0px;margin-left:4px;&quot;&gt;+ actualizarItem: Promise&lt;/p&gt;&lt;p style=&quot;margin:0px;margin-left:4px;&quot;&gt;+ eliminarItem: Promise&lt;/p&gt;" style="verticalAlign=top;align=left;overflow=fill;fontSize=12;fontFamily=Helvetica;html=1;whiteSpace=wrap;" vertex="1" parent="1yLFMfKAnZicDxa3bDTO-117">
          <mxGeometry x="410" y="25" width="170" height="140" as="geometry" />
        </mxCell>
        <mxCell id="1yLFMfKAnZicDxa3bDTO-98" value="&lt;p style=&quot;margin:0px;margin-top:4px;text-align:center;&quot;&gt;&lt;b&gt;Buscar&lt;/b&gt;&lt;/p&gt;&lt;hr size=&quot;1&quot;&gt;&lt;p style=&quot;margin:0px;margin-left:4px;&quot;&gt;+ usuario: Usuario&lt;/p&gt;&lt;p style=&quot;margin:0px;margin-left:4px;&quot;&gt;+ producto: Producto&lt;/p&gt;&lt;p style=&quot;margin:0px;margin-left:4px;&quot;&gt;+ categoria: Categoria&lt;/p&gt;&lt;hr size=&quot;1&quot;&gt;&lt;p style=&quot;margin:0px;margin-left:4px;&quot;&gt;+ buscarUsuarios(): Promise&lt;/p&gt;&lt;p style=&quot;margin:0px;margin-left:4px;&quot;&gt;+ buscarCategorias():Promise&lt;/p&gt;&lt;p style=&quot;margin:0px;margin-left:4px;&quot;&gt;+ buscarProductos(): Promise&lt;/p&gt;&lt;p style=&quot;margin:0px;margin-left:4px;&quot;&gt;+ buscar(): Promise&lt;/p&gt;" style="verticalAlign=top;align=left;overflow=fill;fontSize=12;fontFamily=Helvetica;html=1;whiteSpace=wrap;" vertex="1" parent="1yLFMfKAnZicDxa3bDTO-117">
          <mxGeometry x="1192" y="30" width="180" height="150" as="geometry" />
        </mxCell>
        <mxCell id="1yLFMfKAnZicDxa3bDTO-99" value="&lt;p style=&quot;margin:0px;margin-top:4px;text-align:center;&quot;&gt;&lt;b&gt;Uploads&lt;/b&gt;&lt;/p&gt;&lt;hr size=&quot;1&quot;&gt;&lt;p style=&quot;margin:0px;margin-left:4px;&quot;&gt;+ usuario: Usuario&lt;/p&gt;&lt;p style=&quot;margin:0px;margin-left:4px;&quot;&gt;+ producto: Producto&lt;/p&gt;&lt;hr size=&quot;1&quot;&gt;&lt;p style=&quot;margin:0px;margin-left:4px;&quot;&gt;+ cargarArchivo(): Promise&lt;/p&gt;&lt;p style=&quot;margin:0px;margin-left:4px;&quot;&gt;+ actualizarImagen(): Promise&lt;/p&gt;&lt;p style=&quot;margin:0px;margin-left:4px;&quot;&gt;+ subirArchivo: Promise&lt;/p&gt;&lt;p style=&quot;margin:0px;margin-left:4px;&quot;&gt;+ actualizarImagenCloudinary: Promise&lt;/p&gt;&lt;p style=&quot;margin:0px;margin-left:4px;&quot;&gt;+ mostrarImagen: Promise&lt;/p&gt;&lt;p style=&quot;margin:0px;margin-left:4px;&quot;&gt;&lt;br&gt;&lt;/p&gt;" style="verticalAlign=top;align=left;overflow=fill;fontSize=12;fontFamily=Helvetica;html=1;whiteSpace=wrap;" vertex="1" parent="1yLFMfKAnZicDxa3bDTO-117">
          <mxGeometry x="1380" y="30" width="230" height="170" as="geometry" />
        </mxCell>
        <mxCell id="1yLFMfKAnZicDxa3bDTO-100" value="&lt;p style=&quot;margin:0px;margin-top:4px;text-align:center;&quot;&gt;&lt;b&gt;Categorias&lt;/b&gt;&lt;/p&gt;&lt;hr size=&quot;1&quot;&gt;&lt;p style=&quot;margin:0px;margin-left:4px;&quot;&gt;+ categoria: Categoria&lt;/p&gt;&lt;hr size=&quot;1&quot;&gt;&lt;p style=&quot;margin:0px;margin-left:4px;&quot;&gt;+ obtenerCategorias(): Promise&lt;/p&gt;&lt;p style=&quot;margin:0px;margin-left:4px;&quot;&gt;+ obtenerCategoria(): Promise&lt;/p&gt;&lt;p style=&quot;margin:0px;margin-left:4px;&quot;&gt;+ actualizarCategoria: Promise&lt;/p&gt;&lt;p style=&quot;margin:0px;margin-left:4px;&quot;&gt;+ borrarCategoria: Promise&lt;/p&gt;&lt;p style=&quot;margin:0px;margin-left:4px;&quot;&gt;&lt;br&gt;&lt;/p&gt;" style="verticalAlign=top;align=left;overflow=fill;fontSize=12;fontFamily=Helvetica;html=1;whiteSpace=wrap;" vertex="1" parent="1yLFMfKAnZicDxa3bDTO-117">
          <mxGeometry x="970" y="30" width="210" height="140" as="geometry" />
        </mxCell>
        <mxCell id="1yLFMfKAnZicDxa3bDTO-111" value="&lt;p style=&quot;margin:0px;margin-top:4px;text-align:center;&quot;&gt;&lt;b&gt;Producto&lt;/b&gt;&lt;/p&gt;&lt;hr size=&quot;1&quot;&gt;&lt;p style=&quot;margin:0px;margin-left:4px;&quot;&gt;+ producto: Producto&lt;/p&gt;&lt;hr size=&quot;1&quot;&gt;&lt;p style=&quot;margin:0px;margin-left:4px;&quot;&gt;+ obtenerProductos(): Promise&lt;br&gt;&lt;/p&gt;&lt;p style=&quot;margin:0px;margin-left:4px;&quot;&gt;+ obtenerProducto(): Promise&lt;/p&gt;&lt;p style=&quot;margin:0px;margin-left:4px;&quot;&gt;+ crearProducto(): Promise&lt;/p&gt;&lt;p style=&quot;margin:0px;margin-left:4px;&quot;&gt;+ actualizarProducto(): Promise&lt;/p&gt;&lt;p style=&quot;margin:0px;margin-left:4px;&quot;&gt;+ borrarProducto(): Promise&lt;/p&gt;&lt;p style=&quot;margin:0px;margin-left:4px;&quot;&gt;&lt;br&gt;&lt;/p&gt;" style="verticalAlign=top;align=left;overflow=fill;fontSize=12;fontFamily=Helvetica;html=1;whiteSpace=wrap;" vertex="1" parent="1yLFMfKAnZicDxa3bDTO-117">
          <mxGeometry x="770" y="30" width="190" height="140" as="geometry" />
        </mxCell>
        <mxCell id="1yLFMfKAnZicDxa3bDTO-118" value="&lt;p style=&quot;margin:0px;margin-top:4px;text-align:center;&quot;&gt;&lt;b&gt;Usuario&lt;/b&gt;&lt;/p&gt;&lt;hr size=&quot;1&quot;&gt;&lt;p style=&quot;margin:0px;margin-left:4px;&quot;&gt;+ nombre: string&lt;/p&gt;&lt;p style=&quot;margin:0px;margin-left:4px;&quot;&gt;+ correo: string&lt;/p&gt;&lt;p style=&quot;margin:0px;margin-left:4px;&quot;&gt;+ password: string&lt;/p&gt;&lt;p style=&quot;margin:0px;margin-left:4px;&quot;&gt;+ img: string&lt;/p&gt;&lt;p style=&quot;margin:0px;margin-left:4px;&quot;&gt;+ rol: string&lt;/p&gt;&lt;p style=&quot;margin:0px;margin-left:4px;&quot;&gt;+ estado: boolean&lt;/p&gt;&lt;p style=&quot;margin:0px;margin-left:4px;&quot;&gt;+ google: boolean&lt;/p&gt;&lt;p style=&quot;margin:0px;margin-left:4px;&quot;&gt;&amp;nbsp; &amp;nbsp;uid: string&lt;/p&gt;&lt;hr size=&quot;1&quot;&gt;&lt;p style=&quot;margin:0px;margin-left:4px;&quot;&gt;+ toJSON(): Type&lt;/p&gt;" style="verticalAlign=top;align=left;overflow=fill;fontSize=12;fontFamily=Helvetica;html=1;whiteSpace=wrap;" vertex="1" parent="1">
          <mxGeometry x="-630" y="855" width="160" height="180" as="geometry" />
        </mxCell>
        <mxCell id="1yLFMfKAnZicDxa3bDTO-119" style="edgeStyle=orthogonalEdgeStyle;rounded=0;orthogonalLoop=1;jettySize=auto;html=1;entryX=0.453;entryY=0.006;entryDx=0;entryDy=0;entryPerimeter=0;" edge="1" parent="1" source="8_4pCXizMDxoQlKzlbWR-3" target="1yLFMfKAnZicDxa3bDTO-118">
          <mxGeometry relative="1" as="geometry" />
        </mxCell>
        <mxCell id="1yLFMfKAnZicDxa3bDTO-120" style="edgeStyle=orthogonalEdgeStyle;rounded=0;orthogonalLoop=1;jettySize=auto;html=1;entryX=0.571;entryY=0.012;entryDx=0;entryDy=0;entryPerimeter=0;" edge="1" parent="1" source="1yLFMfKAnZicDxa3bDTO-98" target="1yLFMfKAnZicDxa3bDTO-118">
          <mxGeometry relative="1" as="geometry">
            <Array as="points">
              <mxPoint x="332" y="810" />
              <mxPoint x="-539" y="810" />
            </Array>
          </mxGeometry>
        </mxCell>
        <mxCell id="1yLFMfKAnZicDxa3bDTO-121" style="edgeStyle=orthogonalEdgeStyle;rounded=0;orthogonalLoop=1;jettySize=auto;html=1;entryX=0.5;entryY=0;entryDx=0;entryDy=0;" edge="1" parent="1" source="1yLFMfKAnZicDxa3bDTO-99" target="1yLFMfKAnZicDxa3bDTO-118">
          <mxGeometry relative="1" as="geometry">
            <Array as="points">
              <mxPoint x="545" y="820" />
              <mxPoint x="-550" y="820" />
            </Array>
          </mxGeometry>
        </mxCell>
        <mxCell id="1yLFMfKAnZicDxa3bDTO-122" value="&lt;p style=&quot;margin:0px;margin-top:4px;text-align:center;&quot;&gt;&lt;b&gt;Producto&lt;/b&gt;&lt;/p&gt;&lt;hr size=&quot;1&quot;&gt;&lt;p style=&quot;margin:0px;margin-left:4px;&quot;&gt;+ nombre: string&lt;/p&gt;&lt;p style=&quot;margin:0px;margin-left:4px;&quot;&gt;+ estado: boolean&lt;/p&gt;&lt;p style=&quot;margin:0px;margin-left:4px;&quot;&gt;+ usuario: ObjectId&lt;/p&gt;&lt;p style=&quot;margin:0px;margin-left:4px;&quot;&gt;+ precio: number&lt;/p&gt;&lt;p style=&quot;margin:0px;margin-left:4px;&quot;&gt;+ categoria: ObjectId&lt;/p&gt;&lt;p style=&quot;margin:0px;margin-left:4px;&quot;&gt;+ descripcion: string&lt;/p&gt;&lt;p style=&quot;margin:0px;margin-left:4px;&quot;&gt;+ disponible: boolean&lt;/p&gt;&lt;p style=&quot;margin:0px;margin-left:4px;&quot;&gt;+ img: string&lt;/p&gt;&lt;hr size=&quot;1&quot;&gt;&lt;p style=&quot;margin:0px;margin-left:4px;&quot;&gt;+ toJSON(): Type&lt;/p&gt;" style="verticalAlign=top;align=left;overflow=fill;fontSize=12;fontFamily=Helvetica;html=1;whiteSpace=wrap;" vertex="1" parent="1">
          <mxGeometry x="-440" y="855" width="160" height="185" as="geometry" />
        </mxCell>
        <mxCell id="1yLFMfKAnZicDxa3bDTO-123" value="&lt;p style=&quot;margin:0px;margin-top:4px;text-align:center;&quot;&gt;&lt;b&gt;Categoria&lt;/b&gt;&lt;/p&gt;&lt;hr size=&quot;1&quot;&gt;&lt;p style=&quot;margin:0px;margin-left:4px;&quot;&gt;+ nombre: string&lt;/p&gt;&lt;p style=&quot;margin:0px;margin-left:4px;&quot;&gt;+ estado: boolean&lt;/p&gt;&lt;p style=&quot;margin:0px;margin-left:4px;&quot;&gt;+ usuario: ObjectId&lt;/p&gt;&lt;hr size=&quot;1&quot;&gt;&lt;p style=&quot;margin:0px;margin-left:4px;&quot;&gt;+ toJSON(): Type&lt;/p&gt;" style="verticalAlign=top;align=left;overflow=fill;fontSize=12;fontFamily=Helvetica;html=1;whiteSpace=wrap;" vertex="1" parent="1">
          <mxGeometry x="-270" y="870" width="160" height="110" as="geometry" />
        </mxCell>
        <mxCell id="1yLFMfKAnZicDxa3bDTO-124" value="&lt;p style=&quot;margin:0px;margin-top:4px;text-align:center;&quot;&gt;&lt;b&gt;Item&lt;/b&gt;&lt;/p&gt;&lt;hr size=&quot;1&quot;&gt;&lt;p style=&quot;margin:0px;margin-left:4px;&quot;&gt;+ descripcion: string&lt;/p&gt;&lt;p style=&quot;margin:0px;margin-left:4px;&quot;&gt;+ completado: boolean&lt;/p&gt;&lt;p style=&quot;margin:0px;margin-left:4px;&quot;&gt;+ usuario: ObjectId&lt;/p&gt;&lt;p style=&quot;margin:0px;margin-left:4px;&quot;&gt;+ lista: ObjectId&lt;/p&gt;&lt;hr size=&quot;1&quot;&gt;&lt;p style=&quot;margin:0px;margin-left:4px;&quot;&gt;+ toJSON(): Type&lt;/p&gt;" style="verticalAlign=top;align=left;overflow=fill;fontSize=12;fontFamily=Helvetica;html=1;whiteSpace=wrap;" vertex="1" parent="1">
          <mxGeometry x="-90" y="870" width="160" height="130" as="geometry" />
        </mxCell>
        <mxCell id="1yLFMfKAnZicDxa3bDTO-125" value="&lt;p style=&quot;margin:0px;margin-top:4px;text-align:center;&quot;&gt;&lt;b&gt;Lista&lt;/b&gt;&lt;/p&gt;&lt;hr size=&quot;1&quot;&gt;&lt;p style=&quot;margin:0px;margin-left:4px;&quot;&gt;+ titulo: string&lt;/p&gt;&lt;p style=&quot;margin:0px;margin-left:4px;&quot;&gt;+ creadaEn: Date&lt;/p&gt;&lt;p style=&quot;margin:0px;margin-left:4px;&quot;&gt;+ terminadaEn: Date&lt;/p&gt;&lt;p style=&quot;margin:0px;margin-left:4px;&quot;&gt;+usuario: ObjectId&lt;/p&gt;&lt;p style=&quot;margin:0px;margin-left:4px;&quot;&gt;+ totalItems: number&lt;/p&gt;&lt;p style=&quot;margin:0px;margin-left:4px;&quot;&gt;+ totalItemsCompletados: number&lt;/p&gt;&lt;hr size=&quot;1&quot;&gt;&lt;p style=&quot;margin:0px;margin-left:4px;&quot;&gt;+ toJSON(): Type&lt;/p&gt;" style="verticalAlign=top;align=left;overflow=fill;fontSize=12;fontFamily=Helvetica;html=1;whiteSpace=wrap;" vertex="1" parent="1">
          <mxGeometry x="80" y="870" width="200" height="170" as="geometry" />
        </mxCell>
      </root>
    </mxGraphModel>
  </diagram>
</mxfile>
